<?xml version="1.0" standalone="no"?><!DOCTYPE svg PUBLIC "-//W3C//DTD SVG 1.1//EN" "http://www.w3.org/Graphics/SVG/1.1/DTD/svg11.dtd"><svg t="1531106722495" class="icon" style="" viewBox="0 0 1024 1024" version="1.1" xmlns="http://www.w3.org/2000/svg" p-id="2412" xmlns:xlink="http://www.w3.org/1999/xlink" width="32" height="32"><defs><style type="text/css"></style></defs><path d="M1015.104 969.984l-154.304-154.304c78.08-86.72 126.208-201.088 126.208-326.656C987.008 219.392 767.616 0 497.984 0S8.96 219.392 8.96 489.024s219.392 489.024 489.024 489.024c116.544 0 223.68-41.152 307.712-109.44L961.152 1024 1015.104 969.984 1015.104 969.984zM85.312 488.96c0-227.584 185.152-412.672 412.672-412.672 227.52 0 412.672 185.088 412.672 412.672s-185.088 412.672-412.672 412.672C270.4 901.632 85.312 716.608 85.312 488.96L85.312 488.96zM85.312 488.96" p-id="2413"></path></svg>